<?xml version="1.0" standalone="no"?><!DOCTYPE svg PUBLIC "-//W3C//DTD SVG 1.1//EN" "http://www.w3.org/Graphics/SVG/1.1/DTD/svg11.dtd"><svg t="1638974405620" class="icon" viewBox="0 0 1024 1024" version="1.1" xmlns="http://www.w3.org/2000/svg" p-id="15487" xmlns:xlink="http://www.w3.org/1999/xlink" width="200" height="200"><defs><style type="text/css"></style></defs><path d="M616.96 722.578286c0 17.188571 13.897143 31.158857 31.085714 31.158857h325.193143a31.085714 31.085714 0 1 0 0-62.317714H648.045714a31.232 31.232 0 0 0-31.085714 31.158857z m356.205714 175.104H473.673143a31.085714 31.085714 0 1 0 0 62.244571h499.492571a31.085714 31.085714 0 1 0-0.146285-62.171428z m-138.971428-738.889143L680.521143 29.988571A72.192 72.192 0 0 0 578.633143 38.765714L24.722286 699.026286a20.845714 20.845714 0 0 0-4.827429 14.189714l8.045714 228.937143a18.285714 18.285714 0 0 0 18.285715 17.554286c0.877714 0 1.682286-0.073143 2.56-0.219429l227.181714-31.451429a20.626286 20.626286 0 0 0 13.165714-7.314285l553.984-660.187429a72.192 72.192 0 0 0-8.923428-101.668571zM251.611429 868.790857l-163.328 22.674286-5.851429-164.571429 431.469714-514.267428L684.178286 353.28 251.611429 868.790857z m543.890285-648.118857L724.114286 305.664 553.910857 165.083429l72.484572-86.308572a9.947429 9.947429 0 0 1 7.826285-3.657143c2.413714 0 4.608 0.731429 6.509715 2.267429l153.6 128.950857c4.096 3.657143 4.681143 10.020571 1.170285 14.336z" p-id="15488"></path></svg>