<?xml version="1.0" standalone="no"?><!DOCTYPE svg PUBLIC "-//W3C//DTD SVG 1.1//EN" "http://www.w3.org/Graphics/SVG/1.1/DTD/svg11.dtd"><svg t="1638974733243" class="icon" viewBox="0 0 1024 1024" version="1.1" xmlns="http://www.w3.org/2000/svg" p-id="32812" data-spm-anchor-id="a313x.7781069.0.i16" xmlns:xlink="http://www.w3.org/1999/xlink" width="200" height="200"><defs><style type="text/css"></style></defs><path d="M460.800208 959.52a57.408 57.408 0 0 1-40.728-16.848l-403.2-403.2A57.224 57.224 0 0 1 0.000208 498.744V160a57.664 57.664 0 0 1 57.6-57.6h338.744a57.224 57.224 0 0 1 40.728 16.872l403.2 403.2a57.648 57.648 0 0 1 0 81.456l-338.744 338.744A57.4 57.4 0 0 1 460.800208 959.52zM57.600208 153.6a6.4 6.4 0 0 0-6.4 6.4v338.744a6.4 6.4 0 0 0 1.872 4.528l403.2 403.2a6.4 6.4 0 0 0 9.056 0l338.744-338.744a6.4 6.4 0 0 0 0-9.056l-403.2-403.2a6.4 6.4 0 0 0-4.528-1.872z m198.4 307.2a102.4 102.4 0 1 1 102.4-102.4 102.512 102.512 0 0 1-102.4 102.4z m0-153.6a51.2 51.2 0 1 0 51.2 51.2 51.256 51.256 0 0 0-51.2-51.2z m376.504 658.104l361.368-361.376a57.648 57.648 0 0 0 0-81.456L581.304208 109.896a25.6 25.6 0 0 0-36.208 36.208l412.576 412.568a6.4 6.4 0 0 1 0 9.056l-361.376 361.368a25.6 25.6 0 0 0 36.208 36.208z" fill="#c6c6c6" p-id="32813" data-spm-anchor-id="a313x.7781069.0.i13" class=""></path></svg>